<svg width="308" height="68" viewBox="0 0 308 68" fill="none" xmlns="http://www.w3.org/2000/svg">
<path d="M13.0496 52.0721L2.21639 53.1701L1.47785 45.8832L24.553 43.5445C28.6013 43.1342 30.5023 41.7146 30.2561 39.2856C30.01 36.8567 27.8627 35.8473 23.8145 36.2576L0.739314 38.5963L0.00077682 31.3094L24.2904 28.8476C32.3869 28.027 36.8045 31.2602 37.543 38.5471C38.2816 45.834 34.6026 49.8877 26.506 50.7083L24.2471 50.9373L42.8241 63.7779L31.6265 64.9128L13.0496 52.0721ZM53.9631 55.2872L83.1107 52.3331L83.8492 59.62L47.4148 63.3127L43.7221 26.8782L80.1566 23.1855L80.8951 30.4724L51.7475 33.4266L52.4861 40.7135L81.6336 37.7593L82.3722 45.0462L53.2246 48.0003L53.9631 55.2872ZM96.7564 41.6988L98.423 58.1429L91.1361 58.8814L87.4434 22.447L94.7303 21.7085L96.397 38.1525L112.996 19.8572L123.878 18.7543L105.515 39.0197L127.571 55.1887L116.689 56.2916L96.7564 41.6988ZM170.553 43.4706L171.292 50.7575L134.857 54.4502L131.165 18.0158L138.452 17.2772L141.406 46.4248L170.553 43.4706ZM186.196 41.8852L183.777 49.4922L175.834 50.2972L187.954 12.2601L195.872 11.4576L215.378 46.2894L207.459 47.0919L203.563 40.1251L186.196 41.8852ZM199.642 33.1607L192.841 21.016L188.615 34.2783L199.642 33.1607ZM225.068 24.4735L227.158 45.0954L219.871 45.8339L216.178 9.39951L223.635 8.64374L240.912 35.5299L252.443 5.72405L259.9 4.96829L263.592 41.4027L256.306 42.1413L254.213 21.4951L245.834 43.178L245.837 43.2023L237.627 44.0344L225.068 24.4735ZM278.496 32.5304L276.077 40.1374L268.135 40.9424L280.255 2.90531L288.173 2.10276L307.678 36.9346L299.76 37.7371L295.864 30.7703L278.496 32.5304ZM291.943 23.8059L285.142 11.6612L280.916 24.9235L291.943 23.8059Z" fill="black"/>
</svg>
