<svg width="282" height="46" viewBox="0 0 282 46" fill="none" xmlns="http://www.w3.org/2000/svg">
<path d="M0.15 35V-2.38419e-06H15.3C18.4333 -2.38419e-06 21.1333 0.516665 23.4 1.55C25.6667 2.55 27.4167 4 28.65 5.9C29.8833 7.8 30.5 10.0667 30.5 12.7C30.5 15.3 29.8833 17.55 28.65 19.45C27.4167 21.35 25.6667 22.8167 23.4 23.85C21.1333 24.85 18.4333 25.35 15.3 25.35H4.65L8.25 21.7V35H0.15ZM8.25 22.6L4.65 18.75H14.85C17.35 18.75 19.2167 18.2167 20.45 17.15C21.6833 16.0833 22.3 14.6 22.3 12.7C22.3 10.7667 21.6833 9.26667 20.45 8.2C19.2167 7.13333 17.35 6.6 14.85 6.6H4.65L8.25 2.75V22.6ZM36.2828 35V-2.38419e-06H51.4328C54.5661 -2.38419e-06 57.2661 0.516665 59.5328 1.55C61.7995 2.55 63.5495 4 64.7828 5.9C66.0161 7.8 66.6328 10.0667 66.6328 12.7C66.6328 15.3 66.0161 17.55 64.7828 19.45C63.5495 21.3167 61.7995 22.75 59.5328 23.75C57.2661 24.75 54.5661 25.25 51.4328 25.25H40.7828L44.3828 21.7V35H36.2828ZM58.5328 35L49.7828 22.3H58.4328L67.2828 35H58.5328ZM44.3828 22.6L40.7828 18.8H50.9828C53.4828 18.8 55.3495 18.2667 56.5828 17.2C57.8161 16.1 58.4328 14.6 58.4328 12.7C58.4328 10.7667 57.8161 9.26667 56.5828 8.2C55.3495 7.13333 53.4828 6.6 50.9828 6.6H40.7828L44.3828 2.75V22.6Z" fill="url(#paint0_linear_166_939)"/>
<path d="M82.6105 35L98.2105 -2.38419e-06H106.211L121.861 35H113.361L100.561 4.1H103.761L90.9105 35H82.6105ZM90.4105 27.5L92.5605 21.35H110.561L112.761 27.5H90.4105ZM137.348 45.1C134.814 45.1 132.364 44.7833 129.998 44.15C127.664 43.55 125.714 42.6333 124.148 41.4L127.248 35.8C128.381 36.7333 129.814 37.4667 131.548 38C133.314 38.5667 135.048 38.85 136.748 38.85C139.514 38.85 141.514 38.2333 142.748 37C144.014 35.7667 144.648 33.9333 144.648 31.5V27.45L145.148 20.7L145.048 13.9V8.1H152.448V30.5C152.448 35.5 151.148 39.1833 148.548 41.55C145.948 43.9167 142.214 45.1 137.348 45.1ZM136.148 33.7C133.648 33.7 131.381 33.1667 129.348 32.1C127.348 31 125.731 29.4833 124.498 27.55C123.298 25.5833 122.698 23.3 122.698 20.7C122.698 18.0667 123.298 15.7833 124.498 13.85C125.731 11.8833 127.348 10.3667 129.348 9.3C131.381 8.23333 133.648 7.7 136.148 7.7C138.414 7.7 140.414 8.16667 142.148 9.1C143.881 10 145.231 11.4167 146.198 13.35C147.164 15.25 147.648 17.7 147.648 20.7C147.648 23.6667 147.164 26.1167 146.198 28.05C145.231 29.95 143.881 31.3667 142.148 32.3C140.414 33.2333 138.414 33.7 136.148 33.7ZM137.698 27.3C139.064 27.3 140.281 27.0333 141.348 26.5C142.414 25.9333 143.248 25.15 143.848 24.15C144.448 23.15 144.748 22 144.748 20.7C144.748 19.3667 144.448 18.2167 143.848 17.25C143.248 16.25 142.414 15.4833 141.348 14.95C140.281 14.3833 139.064 14.1 137.698 14.1C136.331 14.1 135.114 14.3833 134.048 14.95C132.981 15.4833 132.131 16.25 131.498 17.25C130.898 18.2167 130.598 19.3667 130.598 20.7C130.598 22 130.898 23.15 131.498 24.15C132.131 25.15 132.981 25.9333 134.048 26.5C135.114 27.0333 136.331 27.3 137.698 27.3ZM173.057 35.4C169.991 35.4 167.291 34.8 164.957 33.6C162.657 32.4 160.874 30.7667 159.607 28.7C158.341 26.6 157.707 24.2167 157.707 21.55C157.707 18.85 158.324 16.4667 159.557 14.4C160.824 12.3 162.541 10.6667 164.707 9.5C166.874 8.3 169.324 7.7 172.057 7.7C174.691 7.7 177.057 8.26667 179.157 9.4C181.291 10.5 182.974 12.1 184.207 14.2C185.441 16.2667 186.057 18.75 186.057 21.65C186.057 21.95 186.041 22.3 186.007 22.7C185.974 23.0667 185.941 23.4167 185.907 23.75H164.057V19.2H181.807L178.807 20.55C178.807 19.15 178.524 17.9333 177.957 16.9C177.391 15.8667 176.607 15.0667 175.607 14.5C174.607 13.9 173.441 13.6 172.107 13.6C170.774 13.6 169.591 13.9 168.557 14.5C167.557 15.0667 166.774 15.8833 166.207 16.95C165.641 17.9833 165.357 19.2167 165.357 20.65V21.85C165.357 23.3167 165.674 24.6167 166.307 25.75C166.974 26.85 167.891 27.7 169.057 28.3C170.257 28.8667 171.657 29.15 173.257 29.15C174.691 29.15 175.941 28.9333 177.007 28.5C178.107 28.0667 179.107 27.4167 180.007 26.55L184.157 31.05C182.924 32.45 181.374 33.5333 179.507 34.3C177.641 35.0333 175.491 35.4 173.057 35.4ZM207.6 7.7C209.734 7.7 211.634 8.13333 213.3 9C215 9.83333 216.334 11.1333 217.3 12.9C218.267 14.6333 218.75 16.8667 218.75 19.6V35H210.95V20.8C210.95 18.6333 210.467 17.0333 209.5 16C208.567 14.9667 207.234 14.45 205.5 14.45C204.267 14.45 203.15 14.7167 202.15 15.25C201.184 15.75 200.417 16.5333 199.85 17.6C199.317 18.6667 199.05 20.0333 199.05 21.7V35H191.25V8.1H198.7V15.55L197.3 13.3C198.267 11.5 199.65 10.1167 201.45 9.15C203.25 8.18333 205.3 7.7 207.6 7.7ZM239.016 35.4C236.116 35.4 233.533 34.8167 231.266 33.65C228.999 32.45 227.216 30.8 225.916 28.7C224.649 26.6 224.016 24.2167 224.016 21.55C224.016 18.85 224.649 16.4667 225.916 14.4C227.216 12.3 228.999 10.6667 231.266 9.5C233.533 8.3 236.116 7.7 239.016 7.7C241.849 7.7 244.316 8.3 246.416 9.5C248.516 10.6667 250.066 12.35 251.066 14.55L245.016 17.8C244.316 16.5333 243.433 15.6 242.366 15C241.333 14.4 240.199 14.1 238.966 14.1C237.633 14.1 236.433 14.4 235.366 15C234.299 15.6 233.449 16.45 232.816 17.55C232.216 18.65 231.916 19.9833 231.916 21.55C231.916 23.1167 232.216 24.45 232.816 25.55C233.449 26.65 234.299 27.5 235.366 28.1C236.433 28.7 237.633 29 238.966 29C240.199 29 241.333 28.7167 242.366 28.15C243.433 27.55 244.316 26.6 245.016 25.3L251.066 28.6C250.066 30.7667 248.516 32.45 246.416 33.65C244.316 34.8167 241.849 35.4 239.016 35.4ZM258.566 45.1C257.166 45.1 255.783 44.8833 254.416 44.45C253.05 44.0167 251.933 43.4167 251.066 42.65L253.916 37.1C254.516 37.6333 255.2 38.05 255.966 38.35C256.766 38.65 257.55 38.8 258.316 38.8C259.416 38.8 260.283 38.5333 260.916 38C261.583 37.5 262.183 36.65 262.716 35.45L264.116 32.15L264.716 31.3L274.366 8.1H281.866L269.716 36.65C268.85 38.8167 267.85 40.5167 266.716 41.75C265.616 42.9833 264.383 43.85 263.016 44.35C261.683 44.85 260.2 45.1 258.566 45.1ZM263.166 36.05L251.166 8.1H259.216L268.516 30.6L263.166 36.05Z" fill="white"/>
<defs>
<linearGradient id="paint0_linear_166_939" x1="139" y1="-8" x2="139" y2="42" gradientUnits="userSpaceOnUse">
<stop offset="0.458333" stop-color="#2B13BB"/>
<stop offset="0.838542" stop-color="white"/>
</linearGradient>
</defs>
</svg>
